# xmcd
#
# Track frame offsets:
#	151
#	21802
#	38741
#	53994
#	66971
#	81778
#	97565
#	111876
#	125965
#	139740
#	155437
#	172192
#	191213
#	207588
#	232097
#	248330
#	269395
#	286600
#	302527
#	320542
#	337017
#
# Disc length: 4722
#
# Revision: 1
# Processed by: cddbd v1.5.1PL0 Copyright (c) Steve Scherf et al.
# Submitted via: audiograbber 1.82.02
# Normalized: r0:DSETVAR1
#
DISCID=31127015
DTITLE=Various Artist - Hot 97 - Request Line Vol. 3
DYEAR=2003
DGENRE=Hip-Hop
TTITLE0=Jay-Z - What More Can I Say
TTITLE1=G-Unit - The Grind
TTITLE2=Missy - Pass The Dutch
TTITLE3=Kelis - Milkshake
TTITLE4=Outkast Feat. Sleepy Brown - The Way You Move
TTITLE5=Dwele - Find A Way
TTITLE6=Musiq - Forthenight
TTITLE7=Mary J. Blige - Ooh!
TTITLE8=Da Band - Bad Boy This, Bad Boy That
TTITLE9=G-Unit - Stunt 101
TTITLE10=Ja Rule - Clap Back
TTITLE11=Snoop Dogg - It Blows My Mind
TTITLE12=Marques Houston Feat. Joe Budden - Clubbin'
TTITLE13=Alicia Keys - You Don't Know My Name
TTITLE14=Joe - More and More
TTITLE15=Kem - Love Calls
TTITLE16=Jagged Edge - Walked Out Of Heaven
TTITLE17=Isley Brothers Feat. JS - Busted
TTITLE18=Gerald Levert - Closure
TTITLE19=Natural Blends Feat. Clipse - Pressure
TTITLE20=2Pac Feat. Notorious B.I.G. - Runin' (Dying To Live)
EXTD=
EXTT0=
EXTT1=
EXTT2=
EXTT3=
EXTT4=
EXTT5=
EXTT6=
EXTT7=
EXTT8=
EXTT9=
EXTT10=
EXTT11=
EXTT12=
EXTT13=
EXTT14=
EXTT15=
EXTT16=
EXTT17=
EXTT18=
EXTT19=
EXTT20=
PLAYORDER=
